<svg width="180" height="180" viewBox="0 0 180 180" fill="none" xmlns="http://www.w3.org/2000/svg">
<path d="M155.109 22.1309C158.186 22.9915 161.956 24.8982 164.496 28.1777C163.358 26.2674 161.658 24.523 159.996 23.2734C163.843 25.3958 166.549 29.2999 168.064 33.2578C166.566 28.1803 166.683 28.8798 167.853 30.9287C168.958 33.1032 169.436 36.2458 169.479 36.3516C169.603 36.2997 169.411 32.4543 169.11 31.6055C171.276 35.435 170.688 45.1735 171.65 39.4365C171.522 40.4665 171.754 42.9313 171.782 43.0137C172.277 42.7366 172.044 37.0694 172.318 37.9687C172.748 39.0402 172.279 40.574 172.195 42.1963C171.422 49.8787 173.446 48.212 171.07 55.0019C171.177 54.8866 171.281 54.7664 171.387 54.6504C168.845 61.6825 165.647 67.6733 162.246 73.5029C161.445 76.0364 158.12 82.0873 156.199 84.8848C155.833 85.4363 153.785 88.0297 153.598 88.2158C153.267 88.5495 154.644 86.4297 153.87 87.2842C153.717 87.4733 150.495 92.0028 150.934 91.8457C151.313 91.3597 152.29 89.6822 152.534 89.4375C154.236 87.9321 144.093 101.64 143.675 102.366C143.974 102.117 144.273 101.861 144.571 101.61C143.895 102.449 143.22 103.286 142.541 104.115C142.737 103.723 142.935 103.33 143.13 102.937C142.353 103.893 141.401 105.248 140.651 106.11C140.533 106.24 140.634 105.733 140.361 106.075C140.091 106.417 140.387 106.533 140.027 107.06C139.624 107.652 137.436 110.143 136.74 111.041C134.152 114.396 131.606 117.862 128.821 121.078C131.433 117.506 128.443 120.833 127.74 121.843C127.589 122.064 128.043 122.402 125.156 125.666C123.282 127.777 124.315 125.313 121.649 129.111C124.354 126.749 122.112 129.369 120.287 131.546C119.954 131.948 117.4 134.809 116.27 136.151C115.882 136.615 115.503 137.49 114.996 138.085C114.647 138.493 114.265 138.703 113.757 139.298C111.322 142.143 108.888 144.907 106.383 147.621C107.243 145.591 105.064 148.633 104.853 148.816C104.116 149.347 106.758 146.313 105.618 147.401C104.065 149.17 102.789 150.616 101.162 152.437C102.43 151.18 100.104 154.471 99.2724 155.03C99.6505 155.15 97.2014 157.469 94.8251 159.653L87.2489 167.581L80.3056 159.539C78.8175 157.565 77.5466 155.814 77.0536 155.364C76.8213 155.152 77.9468 156.965 74.8388 153.035C74.4989 152.603 74.7675 152.643 74.5663 152.429C74.4443 152.304 73.2849 151.816 72.8788 150.82C72.7002 150.418 74.6753 152.225 70.9013 147.885C71.8767 150.012 65.7427 142.058 64.6522 140.44C64.8144 140.767 64.9875 141.108 65.1708 141.46C64.1707 139.879 63.8431 139.782 63.5888 139.447C62.596 138.133 61.2672 136.141 60.328 134.974C59.1932 133.562 58.915 133.779 57.6913 131.985C57.9456 132.438 58.2031 132.897 58.456 133.348C57.5363 132.14 56.6953 131.01 55.8104 129.832C58.2247 132.201 55.4071 129.277 55.204 129.032C54.9246 128.696 55.4569 129.07 54.9931 128.505C54.9436 128.447 54.8643 128.647 54.1581 127.758C52.7051 125.923 53.1174 126.092 52.5233 125.314C52.4678 125.243 52.5314 125.591 51.4774 124.26C48.1165 119.992 51.5928 124.222 51.7323 124.365C51.9118 124.545 51.3467 122.712 53.9032 126.457C53.0448 125.208 53.1732 124.893 53.077 124.752C52.9917 124.632 51.369 122.558 51.2489 122.414C50.3739 121.418 50.9139 122.466 50.7304 122.282C50.5569 122.1 48.8695 119.421 47.9442 119.171C47.4688 117.605 48.8818 119.591 50.4755 121.57C50.7857 121.797 49.2168 119.528 49.1044 119.373C46.9279 116.447 47.7686 118.333 47.0653 117.87C46.6948 117.623 46.0489 116.228 46.5468 117.589C44.545 114.932 45.9273 116.414 45.8261 116.218C45.6738 115.927 44.9163 115.081 44.8329 114.943C44.726 114.758 45.2663 115.269 44.8153 114.565C44.7389 114.449 43.7494 113.497 44.6835 114.979C43.3403 113.071 43.2895 113.336 43.1542 112.447C41.5975 111.602 42.833 111.227 42.5038 110.689C41.6277 109.271 41.4213 109.987 41.3436 109.951C40.8323 109.568 38.3089 105.623 37.5819 104.713C38.1918 104.841 39.7031 107.755 40.1923 108.299C41.8126 110.109 38.4095 105.384 39.8583 106.497C39.315 105.983 38.774 105.47 38.2323 104.95C37.7456 103.634 38.9564 105.121 36.7909 102.199C36.2085 101.882 38.284 104.291 37.7313 103.904C37.4037 103.675 36.197 101.97 36.1054 101.962C36.0097 101.978 37.1612 103.477 36.8964 103.324C36.2759 102.955 32.6074 97.0336 35.7011 101.329C34.8691 100.112 34.9131 99.1429 34.0487 98.1738C33.5034 97.5593 35.4222 101.895 31.6757 95.959C31.8206 95.6983 33.2828 98.2619 33.3456 98.3144C33.4313 98.3744 33.6354 97.5903 33.6093 97.4971C33.4962 97.1794 29.3074 91.344 28.7753 89.8857C28.805 90.6078 25.8509 85.2743 25.4442 84.7617C25.3298 84.6265 25.4801 85.2974 25.3651 85.1484C24.6584 84.2296 23.354 81.258 22.6405 79.9629C21.8445 78.5259 21.7985 78.7944 21.7528 78.7148C21.4128 78.0787 21.7985 78.5199 21.5858 78.1348C21.2594 77.577 19.0821 73.405 18.9667 73.1953C18.9292 73.1383 19.084 73.9032 18.5976 73.0283C18.5148 72.8655 18.7703 72.9056 17.3231 70.1455C15.6315 66.8537 18.1706 72.6022 17.288 71.3232C16.5636 69.0031 16.3038 69.2367 16.0575 68.6426C15.9784 68.4429 15.5575 66.8073 14.8183 65.0742C15.3736 66.2876 15.9674 67.5199 16.5321 68.6338C16.0723 67.5258 14.9723 65.1418 14.6425 64.1426C14.4773 63.6519 14.8498 63.9514 14.4403 62.9209C14.3614 62.706 13.4446 62.0346 14.7919 64.6787C14.6861 64.9786 14.2747 63.6123 13.9921 63.0351C13.9391 62.9352 13.4942 62.7511 13.3856 61.831C13.4186 61.6473 14.9817 63.362 12.4892 58.1133C12.4122 57.943 12.4795 58.5949 12.4013 58.4297C12.3402 58.3028 11.978 56.8822 11.9091 56.6807C11.8421 56.5151 11.9145 57.3039 11.83 57.1025C11.3919 56.0586 11.5702 54.5252 12.1112 56.7334C11.9719 55.9774 11.8504 55.2243 11.7509 54.4834C11.5275 55.3505 11.3695 53.3968 11.1884 52.3476C10.2313 45.1603 10.5549 49.9905 10.2743 48.7705C10.0009 46.6985 10.616 48.2807 10.5995 44.9209C10.6012 44.7666 10.4517 45.6477 10.3974 45.6855C10.4318 45.6003 10.1777 45.2177 10.661 43.1016L10.872 42.3369C10.7243 43.0166 10.6262 43.6732 10.5644 44.2266C10.89 43.7378 11.6157 39.4778 11.8827 39.1816C12.6759 37.3873 12.9993 37.0893 13.3065 36.6064C13.6597 36.1712 14.054 35.2358 16.2772 33.2314C16.685 32.8741 17.6879 32.2575 18.6679 31.6758C20.6112 30.6203 19.3284 31.0617 17.3935 32.2646C15.4948 33.3966 13.5652 35.7093 13.4208 35.833C13.3255 35.8786 15.2207 33.2702 17.8769 31.7461C20.4961 30.1696 22.8823 29.7195 23.1063 29.6631C24.5436 29.3461 18.713 31.1683 19.9159 31.0254C20.0592 30.9905 21.3737 30.3695 23.3349 29.9004C25.2606 29.4409 27.2202 29.2318 29.4081 29.2148C31.8491 29.1949 34.0337 29.4911 34.8749 29.6543C37.3981 30.1546 38.3165 30.98 38.4784 30.4277C39.0273 31.14 39.7148 30.9429 40.0165 31.0342C43.6166 32.2423 43.5918 32.2946 46.5028 33.5391C47.1322 33.8226 47.5826 34.2357 47.8124 34.3213C47.9463 34.3709 47.7915 34.0854 48.4364 34.3564C49.3901 34.6845 54.154 37.7986 54.4042 38.1533C54.6968 38.4539 52.3916 36.8891 52.7255 37.3008C54.427 38.3984 56.0136 39.4649 57.6034 40.6846C58.255 41.1885 57.8583 41.0202 58.1395 41.2383C58.3004 41.3477 60.5462 43.0196 60.4686 42.917C60.3688 42.5665 53.198 37.4101 55.1864 38.6279C55.5858 38.8544 56.7265 39.9949 56.6981 39.5947C63.0859 44.3574 68.5246 49.8243 73.494 55.5557C70.4589 52.4342 67.1754 48.7414 63.6942 45.6328C63.2252 45.2032 61.6088 43.7575 61.7079 44.0508C64.7173 46.6595 68.2585 50.0223 70.7255 52.831C70.8047 52.9208 70.4093 52.6997 70.6991 53.042C71.2487 53.6776 73.2156 55.552 73.4677 55.9336C73.3998 55.8965 72.3712 54.9833 72.5888 55.3887C73.1777 56.4826 73.8378 56.2802 74.5136 57.0762C75.0655 57.6949 78.2111 61.9886 79.1718 62.9473C80.2077 63.928 76.8132 59.784 77.1767 59.9941C79.6035 62.7057 81.6838 65.736 83.6894 68.4932C83.7209 68.5328 83.5197 68.0412 83.9794 68.6514C84.7866 69.729 84.8115 70.0777 85.1747 70.6465C85.4511 71.0747 86.2181 72.2322 86.6952 72.9668C87.6233 71.0958 88.5225 69.3997 89.2792 68.2207C88.3514 69.8392 87.5411 71.4531 86.7743 73.0986C86.8702 73.2483 86.9594 73.367 87.0116 73.459C90.1085 67.0773 93.6337 60.9246 97.6112 55.0371C98.6599 53.5605 98.2989 54.491 99.9579 52.0312C99.4425 52.6153 98.9373 53.1908 98.4286 53.7891C99.2933 52.5411 103.482 47.1634 104.185 46.3184C104.272 46.2052 104.224 45.9077 105.319 44.5957C106.298 43.436 106.59 43.3608 107.156 42.7764C107.633 42.2857 108.126 41.6967 108.272 41.5547C108.383 41.4481 108.498 41.4677 108.765 41.2119C109.621 40.3945 108.764 40.8969 109.81 40.2715C109.62 40.4824 109.427 40.6917 109.239 40.9043C110.26 39.9069 111.749 38.6485 110.311 40.1748C110.067 40.4394 110.219 40.159 110.03 40.3506C102.919 48.0731 108.623 41.9449 111.182 39.2783C111.918 38.6771 115.86 35.0755 116.051 35.0156C116.258 34.8975 115.628 35.5475 116.613 34.8662C116.756 34.6489 122.577 30.4474 120.568 32.0713C120.133 32.383 117.35 34.3946 116.727 34.9365C118.376 33.9061 121.891 30.9985 122.379 30.7529C124.163 29.6774 119.142 33.102 123.117 30.6211C126.233 28.8152 123.222 30.3658 124.383 29.6016C125.024 29.1321 128.787 27.5063 128.61 27.3428C129.894 26.7535 129.206 27.2028 129.357 27.1494C129.509 27.0735 132.092 25.9831 132.987 25.7783C133.089 25.7534 132.806 25.979 132.917 25.9541C133.133 25.8799 135.674 25.1287 135.817 25.1016C135.882 25.0764 135.234 25.124 135.483 25.0312C135.772 24.9016 138.317 24.3854 138.472 24.3457C138.66 24.2333 135.503 24.9368 136.002 24.706C137.46 24.3692 139.839 23.8932 140.818 23.6953C140.578 23.7456 139.133 23.948 138.639 24.0293C138.805 23.8038 141.278 23.4777 141.108 23.5986C141.461 23.4991 141.159 23.5119 141.486 23.4141C141.606 23.3817 142.535 23.305 142.725 23.2646C142.662 23.2557 141.766 23.2528 141.952 23.2031C142.311 23.0779 145.251 22.9896 145.503 23.0361C146.183 23.0828 143.791 23.1517 143.578 23.2559C143.653 23.263 145.582 23.3794 145.626 23.4053C145.741 23.5359 143.486 23.4667 143.745 23.5986C144.302 23.6044 144.863 23.6223 145.424 23.6514C143.268 23.72 139.333 24.1234 138.375 24.4951C141.466 23.8606 144.793 23.8287 144.791 24.1699C144.789 24.3064 143.452 24.4387 143.508 24.4775C143.72 24.5821 145.547 24.4092 145.643 24.4248C145.701 24.433 145.731 24.4437 145.731 24.4512C145.682 24.5058 143.068 24.6232 142.945 24.6885C142.73 24.7617 143.912 24.9536 143.912 25.0137C143.86 25.0167 142.031 25.1958 142.655 25.251C143.277 25.2916 144.857 25.2457 144.967 25.2598C145.272 25.2937 142.454 25.4734 142.383 25.541C142.44 25.555 143.85 25.5673 143.894 25.6025C143.842 25.6359 142.781 25.7647 142.365 25.9014C142.043 26.0019 142.996 25.9726 142.84 25.998C142.728 25.9907 140.092 26.2948 139.975 26.3496C139.793 26.3968 140.406 26.3936 140.326 26.4287C140.205 26.4758 139.368 26.5798 139.482 26.5957C139.613 26.5714 142.853 26.4798 142.822 26.5957C142.744 26.7123 139.389 26.7759 142.585 26.9824C142.606 26.9822 143.32 26.8878 143.385 26.8857C143.861 26.9587 141.432 27.2562 144.422 27.0615C138.888 27.6391 143.743 27.2928 142.936 27.5889C142.627 27.6853 140.527 27.9802 140.511 28.0107C140.731 28.0914 141.398 27.9106 141.636 27.9404C141.717 27.9539 139.904 28.3444 140.335 28.3623C140.566 28.3513 142.552 28.0927 142.629 28.1074C143.41 28.1124 142.474 28.2708 142.638 28.3096C142.753 28.3288 143.949 28.2474 143.982 28.2568C143.968 28.2687 142.436 28.5197 142.101 28.6172C141.851 28.6822 142.806 28.6427 142.629 28.6787C141.563 28.8679 139.282 28.9767 141.504 29.0127C141.637 29.0144 142.438 28.9153 142.488 28.916C143.006 28.9632 141.487 29.1286 141.231 29.2588C140.794 29.4607 142.935 29.0967 141.161 29.4346C142.522 29.3433 143.249 29.2623 144.835 29.1709C140.471 29.5183 139.045 30.2107 143.798 29.6631C142.284 29.7739 142.473 29.9884 142.022 30.041C141.738 30.0598 139.542 30.2173 140.607 30.5156C140.755 30.541 142.022 30.2816 141.644 30.4541C138.514 30.9265 141.584 30.5303 141.592 30.5596C141.554 30.6421 134.042 32.3136 132.873 33.0996C131.459 33.7407 130.34 34.5926 130.043 34.7519C129.066 35.2777 129.815 34.7334 129.577 34.8135C129.302 34.8845 126.731 36.6876 126.589 36.7998C126.094 37.071 126.421 36.7114 126.439 36.668C125.724 36.9758 122.31 39.6306 121.386 40.4297C121.482 40.4552 123.357 38.9514 122.273 40.0166C121.048 41.2455 120.707 41.0496 120.647 41.0537C114.497 46.4244 109.312 53.0634 104.827 60.1348C105.064 60.1403 107.947 55.506 108.07 55.4414C108.552 54.9386 103.498 62.6121 102.929 63.5976C103.404 62.8921 103.889 62.1815 104.388 61.4707C103.83 62.8752 101.895 65.4806 100.977 67.4297C100.685 68.0471 101.401 66.9557 101.408 66.9639C101.122 67.7033 100.466 68.7481 100.775 67.8691C100.016 69.5736 99.9908 69.2931 99.3163 70.5674C99.2979 70.6118 99.6567 70.1569 99.1933 71.165C98.9573 71.6601 97.7086 74.1957 97.62 74.6279C97.5887 74.7898 98.6254 73.6625 98.3583 73.3447C99.9049 70.6364 98.6538 72.3609 99.202 71.2881C99.2946 71.1236 99.2492 71.6121 100.591 68.8535C100.632 69.5527 98.8017 72.5185 98.578 73.0986C98.1101 74.2474 100.55 69.7937 100.767 68.8183C100.825 69.3312 100.965 68.5221 101.522 67.5264C102.139 66.4319 101.955 66.946 102.278 66.3662C103.176 64.778 102.629 65.3321 103.553 64.1074C102.315 65.0858 104.802 61.8246 105.565 60.917C104.568 62.5646 103.609 64.2335 102.683 65.9355C102.761 65.8564 102.841 65.7775 102.92 65.6982C102.666 66.1369 102.423 66.5637 102.173 67.0078C102.187 66.9228 102.204 66.8347 102.217 66.7529C101.1 69.1697 100.652 69.6085 100.538 69.8115C99.2494 72.216 97.8451 75.1206 96.706 77.6601C96.5454 78.0307 96.8039 77.8662 95.4755 80.5781C95.046 81.4702 95.2556 80.5712 94.8603 81.5801C94.7203 83.0148 94.425 82.8743 94.2802 83.2324C93.8344 84.3506 93.7071 84.9924 93.6562 85.1309C93.4567 85.6799 93.1537 86.4868 92.9618 87.0557L89.0595 98.5342L82.7226 88.0137C82.2874 87.3078 81.6368 86.2971 81.1757 85.6143C81.1696 85.6155 81.4847 86.3339 80.9647 85.4736C80.7741 85.1546 79.4433 82.1245 77.6073 79.8926C77.9968 80.5019 78.4142 81.1673 78.8026 81.791C78.3503 80.9958 74.6134 76.1507 75.3661 77.4404C75.8603 78.2527 77.4703 79.8417 77.3261 80.2529C76.2942 78.4583 69.1884 69.712 68.6161 69.0557C68.5617 68.9689 69.1244 69.4459 69.0292 69.3105C68.9472 69.1882 67.2635 67.2818 67.0604 66.9902C66.9567 66.8293 67.7574 67.6326 67.7284 67.5351C67.6789 67.4195 65.6434 65.0594 65.3729 64.9951C65.9619 65.5433 67.3665 67.212 66.5067 66.4365C66.3962 66.3351 65.9589 65.6968 65.8212 65.5752C64.5588 64.449 67.9408 68.1461 68.4315 68.7568C66.2363 66.468 63.1227 62.7343 60.4423 60.3105C59.4946 59.1991 62.1177 61.6926 61.0224 60.4599C58.8258 58.0205 60.1251 59.7838 60.161 59.8799C59.4688 59.3751 57.8355 56.9081 57.4628 57.3047C56.6023 56.4255 56.9444 56.633 55.5907 55.5557C55.7379 55.7307 55.8841 55.9068 56.0302 56.083C54.401 55.0414 51.7647 51.995 51.996 52.1016C52.7491 52.4576 54.2366 53.9728 54.3778 54.0879C54.5876 54.2548 55.5357 54.2886 57.4101 56.6103C58.573 57.1305 54.0522 53.3639 56.2411 54.9228C54.8904 53.6885 49.1566 49.0634 48.1552 48.7353C48.0439 48.6993 48.3172 49.2893 46.9247 48.1992C46.2567 47.6809 47.9879 48.7443 47.7069 48.4717C47.2795 48.0502 43.5882 45.64 39.5067 44.1475C35.4331 42.5552 31.1604 42.3131 29.8563 42.3984C29.6883 42.4022 29.7408 42.2837 29.5839 42.2842H29.5751C28.9246 42.2843 27.2383 42.6491 26.5956 42.7939C28.1139 42.6517 25.2261 43.3918 25.1806 43.6201C24.7346 43.906 24.6821 43.7127 24.5038 43.8398C23.8375 44.0355 23.9839 47.0681 23.8974 48.9463C24.3295 48.7673 24.2766 52.2085 24.8993 53.9473C25.2922 55.1701 26.3447 56.9589 25.8837 55.1514C26.6943 57.4421 27.7637 59.6094 28.8192 61.7256C28.9811 62.0491 28.623 61.6641 28.9071 62.2178C28.935 62.2687 29.106 62.2793 29.3642 62.7627C31.5847 66.8269 30.2975 64.9866 30.6122 65.8037C30.7963 66.2611 30.9427 66.5707 31.0604 66.8057C29.7118 64.4053 28.3234 61.6965 27.9667 60.9258C27.9218 61.6893 30.7046 66.3003 31.3769 67.6318C31.3999 67.6804 31.1496 67.6098 31.1747 67.6582C31.4244 68.1672 33.373 71.4342 33.1786 70.6465C33.1176 70.4244 32.2266 68.8954 31.2538 67.1572C31.5461 67.6041 31.5359 67.1677 31.5878 67.2363C32.2166 68.1837 33.5349 70.8874 34.0136 71.7363C34.1257 71.9374 34.2295 71.8646 34.2509 71.8945C34.7007 72.7078 34.1784 72.57 35.0155 73.1953C35.4775 74.8909 33.3242 70.5151 33.2489 70.9717C33.1108 71.3369 38.9491 80.4749 39.3485 80.2881C39.3365 80.3438 39.3842 80.4986 39.5067 80.7891C39.7679 81.4275 41.4894 83.9372 41.8534 84.3398C41.9187 84.4006 42.2106 84.1717 42.2753 84.2607C42.4548 84.5217 44.3171 87.7419 45.3075 88.7519C44.9159 88.1038 44.5232 87.4552 44.1386 86.8096C46.748 90.5349 46.4591 89.893 45.6679 88.585C45.6253 88.5226 45.5939 88.4514 45.5536 88.3916C44.943 87.3815 44.1527 86.1062 44.1649 86.0713C44.238 86.0125 48.7208 92.2159 47.5751 91.2041C47.3878 91.0267 45.4669 88.0603 46.2831 89.6396C46.4258 89.9199 47.8361 91.7627 47.8827 91.8721C48.1902 92.6261 45.0645 88.676 45.2108 89.3232C46.1191 90.1812 46.9353 91.5443 47.8036 92.6367C48.1975 93.1315 48.4478 93.1471 48.4979 93.208C49.23 94.1303 48.6758 93.7194 48.911 94.0342C49.0503 94.2162 50.7557 95.8259 50.0185 95.8184C54.9386 101.705 51.6118 97.2697 48.8231 93.498C49.8666 94.5707 51.5159 96.976 52.3388 97.9893C52.6325 98.3506 52.6251 98.0168 53.1298 98.6221C54.1591 99.8798 58.7161 106.186 59.9413 107.815C59.111 106.872 59.1577 107.292 59.7655 108.044C60.371 108.791 60.1128 107.989 60.2489 108.105C60.4053 108.257 63.0712 111.851 63.5888 112.43C61.3866 109.842 61.6769 110.57 63.4657 112.852C63.1528 112.563 62.8319 112.263 62.5253 111.981C63.6608 113.267 65.6285 116.249 66.3134 116.93C66.4211 117.036 66.2292 116.507 66.287 116.561C66.8779 117.164 68.6097 119.593 68.7392 119.646C68.8541 119.7 68.1908 118.633 68.5458 118.942C68.6202 119.007 69.1787 120.105 69.9696 120.964C70.2624 121.282 70.2438 120.966 70.3212 121.043C70.9623 121.682 70.3817 121.464 71.5077 122.748C72.3338 123.687 73.1665 124.209 74.162 125.552C70.9104 121.062 73.7518 124.725 75.3661 126.457C75.6233 126.731 75.6897 126.291 77.0097 128.101C73.4483 124.826 77.631 129.349 78.4247 130.28C78.469 130.335 78.3164 130.501 78.7235 130.983C78.7581 131.022 78.8308 130.868 79.2157 131.3C82.8063 135.314 80.4251 132.814 80.9735 133.682C81.1952 134.037 83.1578 135.979 83.5927 136.468C83.6965 136.586 83.5353 136.633 83.9354 137.083C84.668 137.907 85.5137 138.625 85.9921 139.148C86.0443 139.207 85.878 139.393 86.8095 140.326C87.0927 140.613 87.4774 140.922 87.1347 140.423C86.1589 138.964 83.4808 136.515 82.3007 134.789C81.2378 133.239 85.0985 137.65 85.3944 137.979C85.4589 138.055 84.58 137.244 85.3681 138.182C85.8787 138.788 86.8257 139.503 87.6884 140.353C88.4499 139.845 89.3017 139.276 89.6659 138.814C90.2514 138.078 89.7595 138.029 89.7978 137.953C89.8652 137.836 90.6658 136.952 90.8964 136.591C91.162 136.172 90.8825 136.252 91.3446 135.606C92.3575 134.159 92.6653 134.442 92.8036 134.323C94.4677 132.832 93.3915 133.171 93.6737 132.759C94.0091 132.3 98.2361 127.572 98.9472 126.448C98.6683 126.924 98.4025 127.376 98.1122 127.863C98.9346 127.282 99.2436 126.22 99.6239 126.51C99.1569 125.866 100.824 124.629 101.206 124.128C101.354 123.933 101.245 123.861 101.434 123.618C102.185 122.658 103.861 120.732 104.221 120.173C105.698 117.859 100.999 122.967 100.582 123.425C101.326 122.532 105.044 117.588 102.973 119.584C102.65 119.896 102.431 120.736 102.287 120.937C101.314 122.294 101.891 121.074 101.786 121.157C101.605 121.311 101.167 122.325 100.942 122.546C100.873 122.612 101.058 121.946 100.019 123.223C100.366 122.366 103.284 119.066 103.632 118.521C103.73 118.351 102.49 118.988 105.319 116.323C105.252 116.323 105.184 116.323 105.117 116.323C106.407 114.647 107.744 112.886 109.037 111.173C108.996 111.436 108.469 112.543 109.345 111.322C109.85 110.616 109.234 110.941 109.274 110.874C109.706 110.245 118.178 99.1564 119.672 96.9521C120.202 96.2049 121.5 93.9913 121.605 93.832C122.263 92.8754 124.732 89.6123 125.165 88.9189C125.437 88.4864 124.967 88.7425 125.235 88.374C125.483 88.0359 125.428 88.5331 125.508 88.4355C126.194 87.63 130.319 80.9135 131.493 79.4707C130.838 80.3871 128.078 85.4202 128.276 85.4121C128.352 85.3548 129.232 84.3568 129.313 84.0762C129.747 83.8066 130.127 82.078 130.711 81.4131C130.777 81.3378 130.861 81.8663 131.774 80.5869C132.09 80.1429 132.62 78.8189 133.646 77.792C134.705 75.9568 140.578 67.0096 140.519 66.1641C140.484 66.1781 139.663 67.3792 140.018 66.4189C140.493 65.1213 140.528 66.5469 141.346 65.1973C141.504 64.9571 143.395 61.2428 143.437 61.0312C143.664 59.6902 141.831 62.8794 141.785 62.8418C141.744 62.68 143.077 59.9329 143.174 59.7832C143.256 59.6872 142.6 62.2199 143.789 59.3877C143.577 59.6684 143.355 59.948 143.139 60.2314C143.671 58.8877 144.056 58.9473 144.228 58.6494C144.765 57.713 144.699 56.5233 146.057 55.2393C146.412 54.9096 146.299 55.6732 146.347 55.6348C146.801 55.2448 146.453 54.3355 147.225 53.8242C147.276 53.7934 146.873 55.5746 148.078 52.6641C147.953 52.8425 147.828 53.0287 147.7 53.209C147.77 52.7978 148.877 49.7044 149.001 49.3594C149.453 48.2627 149.469 49.3526 149.792 48.2256C149.113 48.813 150.086 45.3074 150.398 45.6592C150.025 45.0863 150.995 42.387 151.031 41.4492C151.113 40.7055 150.841 39.6712 150.838 39.5684C150.854 39.4193 151.221 39.4093 151.26 39.1289C151.278 38.9979 150.839 38.4738 151.163 38.417C151.231 38.4008 151.741 38.0647 151.901 37.9951C152.183 37.8743 151.917 38.544 152.262 38.4785C152.634 38.3062 152.174 37.7806 152.174 37.7842C152.168 37.4708 152.556 37.2421 152.675 37.1777C152.9 36.9527 152.509 36.6663 152.473 36.624C152.457 36.4653 152.933 36.4755 153.061 36.3428C153.26 36.1651 152.9 35.4114 153.07 35.4199C153.394 35.4591 153.644 36.1079 153.668 36.1494C154.169 36.3209 154.166 35.4681 154.081 35.0596C154.078 34.9456 154.414 35.0314 154.38 34.9717C153.775 34.0391 153.741 35.4821 153.237 35.0684C152.746 34.7221 153.547 34.7657 153.615 34.7519C153.624 34.7159 152.9 34.3009 152.78 34.1191C152.857 33.9904 155.052 34.4925 155.188 34.2949C154.573 33.8459 153.965 33.5583 153.079 33.2578C153.214 32.828 154.202 33.6653 154.274 33.6885C154.521 33.7345 154.08 33.2176 154.151 33.1084C154.207 33.0329 155.095 33.2089 154.494 32.7041C154.288 32.5395 153.569 32.4697 152.683 31.8516C156.35 32.9873 154.094 31.7493 153.993 31.5176C153.931 31.3206 155.98 31.8572 153.641 30.8848C153.843 30.07 153.799 30.64 154.538 30.8144C155.375 31.0712 153.857 29.796 156.384 31.6142C156.574 31.164 154.143 29.8955 153.958 29.874C153.857 29.8003 154.503 29.8508 154.318 29.707C152.171 28.135 153.701 29.0527 153.123 28.3535C153.112 28.2693 150.451 27.4758 152.516 27.8789C156.071 28.6805 157.067 30.3588 158.256 29.751C156.244 27.4195 152.424 27.283 151.576 27.1582C150.193 26.9215 151.658 26.9455 151.515 26.8506C151.444 26.8071 150.283 26.6328 150.302 26.6221C149.954 26.1236 151.243 26.2386 152.894 26.7539C154.439 27.2175 156.236 28.2149 157.087 28.6699C156.717 28.29 156.304 27.9241 155.856 27.5713C156.543 27.8788 157.187 28.2294 157.781 28.6172C154.924 26.6599 157.767 28.3701 158.871 28.3623C159.122 28.3458 157.026 27.1529 159.521 28.4414C157.918 27.103 158.553 27.3571 156.779 26.6309C156.99 26.2848 160.92 28.3173 162.097 29.9092C160.105 27.289 159.171 27.2467 158.695 27.0439C158.139 26.9072 157.763 26.634 155.434 25.4004C154.462 25.4144 156.694 26.2166 156.516 26.2353C155.673 26.0846 154.443 25.208 152.35 25.5234C152.027 25.5877 153.229 26.2188 151.321 25.8223C151.044 25.7643 150.076 25.2938 150.064 25.2685C150.245 25.0262 151.312 25.2885 151.435 25.207C151.45 25.0996 150.211 24.9649 150.214 24.9434C150.229 24.6208 151.225 24.969 151.11 24.8555C150.911 24.5972 146.162 23.1986 152.429 24.3809C147.15 23.9123 151.568 24.4282 153.782 24.9346C154.308 25.0503 154.502 24.9045 155.241 25.0928C156.125 25.3018 157.414 26.0094 157.878 26.2441C158.402 26.5469 155.692 24.2854 159.855 27.1142C159.011 26.1721 157.329 25.2117 155.698 24.6445C154.192 24.1008 152.544 23.764 151.33 23.4053C149.265 22.779 150.019 22.6817 151.418 22.7725C153.097 22.8963 155.304 23.5175 155.707 23.6514C155.929 23.7116 155.291 23.2148 155.434 23.2471C155.563 23.0854 160.447 25.623 160.831 25.9365C161.393 26.0651 159.232 24.8044 159.17 24.5654C159.201 24.0717 164.77 28.5288 161.912 25.8662C159.971 23.9322 155.451 22.8305 155.109 22.1309ZM92.7157 148.21L92.9618 148.219C92.9347 148.139 93.0042 148.141 93.0673 148.131L92.6806 148.122C92.6941 148.148 92.6978 148.181 92.7157 148.21ZM82.3446 148.14H82.6435C82.6659 148.115 82.6901 148.08 82.7226 148.043H82.4413C82.3651 148.117 82.3452 148.15 82.3446 148.14ZM92.5048 147.7C92.5475 147.788 92.5676 147.869 92.619 148.008L93.1903 148.017C93.1727 148.05 93.005 147.912 92.9442 147.841C92.9044 147.791 92.878 147.741 92.8563 147.7H92.5048ZM82.6962 147.797C82.6415 147.855 82.587 147.896 82.5468 147.937H82.8192C82.8964 147.849 82.9885 147.741 83.0917 147.621H82.8544C82.7887 147.691 82.7413 147.751 82.6962 147.797ZM82.1249 147.937H82.2919C82.3327 147.847 82.3909 147.719 82.4501 147.612H82.3358C82.2205 147.761 82.0685 147.956 82.1249 147.937ZM108.756 144.756C108.674 144.648 107.087 146.291 107.121 146.593C107.395 146.273 108.776 144.854 108.756 144.756ZM82.0634 135.721C81.8059 135.693 83.179 137.189 83.1972 137.232C83.2325 137.314 83.0599 137.857 83.162 138.006C83.3119 138.215 84.9872 140.182 86.2118 141.645C86.2751 141.575 86.3322 141.519 86.37 141.478C86.4932 141.461 86.4375 141.569 86.2997 141.75C86.3867 141.854 86.465 141.96 86.5458 142.058C86.6107 141.948 86.6581 141.845 86.6864 141.741C86.4798 141.455 86.3474 141.361 86.2382 141.328C86.0307 141.507 86.0222 141.448 86.1063 141.275C86.0737 141.271 86.0475 141.281 86.0272 141.258C85.7426 140.921 85.272 140.078 84.6913 139.465C85.2587 140.011 85.7327 140.445 86.2909 140.977C86.3088 140.952 86.3331 140.931 86.3524 140.906C85.2096 139.465 82.2469 135.784 82.0634 135.721ZM86.4579 141.135C86.5308 141.205 86.6099 141.272 86.6864 141.346C86.6562 141.281 86.6098 141.216 86.5458 141.161V141.152C86.5297 141.132 86.5105 141.113 86.4931 141.091C86.4808 141.104 86.4712 141.121 86.4579 141.135ZM90.7909 135.009C90.866 134.947 92.1294 133.071 91.8895 134.033L91.6698 134.385C91.3217 134.848 90.6638 135.555 90.413 135.791C90.3622 135.836 90.3017 135.406 89.8153 136.02C89.4389 136.499 90.2742 136.024 89.4638 136.898C88.6578 137.766 89.5059 136.403 89.4286 136.468C89.3102 136.575 88.2563 138.044 88.1542 137.865C88.0762 137.741 89.3839 136.345 89.7011 135.923C90.0905 135.401 89.4033 135.849 90.1493 135.044C90.6253 134.529 90.6824 135.103 90.7909 135.009ZM95.0185 132.776C94.7251 133.022 93.195 135.067 93.8319 134.508C94.3831 134.027 95.4763 132.403 95.0185 132.776ZM95.1503 131.889C94.9984 132.051 92.6353 134.696 93.287 134.288C93.5353 134.124 97.6052 129.321 95.1503 131.889ZM81.2108 133.26C80.7361 132.39 82.8434 134.893 81.9667 134.156C81.9265 134.12 81.2586 133.328 81.2108 133.26ZM78.8642 131.783C79.0721 132.314 80.03 133.411 79.8925 132.961C79.8807 132.921 79.115 131.865 78.8642 131.783ZM96.2929 132.75C96.2973 132.936 96.6695 132.398 97.0048 132.082V132.091C97.3835 131.736 98.3521 130.712 98.8241 129.797C97.9568 130.813 97.1126 131.8 96.2929 132.75ZM96.8642 127.916C96.6811 128.509 95.4686 129.721 94.8866 130.368C95.0819 129.834 96.2895 128.5 96.8642 127.916ZM77.036 129.287C76.8546 128.908 75.936 128.166 76.2538 128.795C76.4907 129.114 77.0244 129.316 77.036 129.287ZM99.8964 128.215C101.185 127.4 100.279 127.55 99.3515 128.435C99.2701 128.869 99.686 128.348 99.8964 128.215ZM74.1972 126.747C74.2775 126.865 75.7006 128.656 75.7792 128.558C75.4702 128.049 73.4753 125.635 74.1972 126.747ZM98.9823 127.143C98.7785 127.303 97.9661 128.397 98.0595 128.47C98.2892 128.503 99.3104 126.891 98.9823 127.143ZM97.8485 125.807C97.5837 126.261 97.807 126.471 97.3915 126.923C96.0597 128.376 96.9177 127.101 97.8485 125.807ZM100.898 127.485C102.106 126.589 101.805 125.891 101.1 126.747C100.826 127.08 100.727 127.611 100.898 127.485ZM73.1688 124.787C73.4424 125.398 74.7771 126.642 74.5312 126.237C74.3348 125.929 72.9013 124.186 73.1688 124.787ZM99.7294 123.381C100.283 123.052 99.0726 124.402 99.0614 124.436C99.0571 124.508 100.327 124.148 98.244 125.903C97.9403 126.159 98.6593 124.964 98.5692 125.024C98.3418 125.219 98.1718 125.384 98.0507 125.525C98.7909 124.514 99.6113 123.452 99.7294 123.381ZM102.507 124.383C102.66 123.938 101.192 125.605 101.127 125.719C100.727 126.418 102.197 125.259 102.507 124.383ZM72.2811 123.935C71.2743 123.093 73.0118 125.093 73.5995 125.78C73.7424 125.738 72.3547 123.999 72.2811 123.935ZM100.353 123.697C100.504 123.737 99.1846 125.574 98.8241 125.464C99.1418 125.114 100.247 123.688 100.353 123.697ZM105.495 121.491C105.276 121.619 103.931 123.655 103.851 123.724C103.727 123.836 103.986 123.069 103.227 124.093C103.351 124.09 103.079 124.845 103.183 124.77C103.532 124.484 106.088 121.166 105.495 121.491ZM103.491 123.135C103.539 123.044 102.793 123.356 102.621 123.812C102.494 124.158 103.274 123.5 103.491 123.135ZM67.6405 117.343C68.3058 117.793 71.0533 121.393 70.4882 121.025C70.0393 120.739 68.0071 118.051 67.6405 117.343ZM106.427 115.286C106.226 115.229 104.687 117.476 104.203 117.949C104.169 118.55 105.393 116.507 105.724 116.218L105.636 116.868C105.653 117.044 105.839 116.88 106.567 115.488C105.492 116.712 106.466 115.346 106.427 115.286ZM106.822 114.864C107.648 113.768 106.624 114.219 106.268 115.022C106.251 115.071 106.762 114.936 106.822 114.864ZM64.2216 112.667C64.5275 113.099 65.5317 114.217 65.3642 114.231C64.8254 113.613 64.2388 113.009 64.2216 112.667ZM63.0878 113.221C62.7949 112.765 62.8395 112.529 62.6483 112.359C62.5819 112.307 62.4364 112.394 62.2265 112.201C62.5067 112.532 62.8011 112.883 63.0878 113.221ZM140.344 106.998C140.144 107.703 138.018 109.918 138.261 109.424C138.335 109.295 140.378 106.716 140.344 106.998ZM58.6493 106.699C58.0975 105.836 56.84 104.416 57.2694 105.205C57.3634 105.378 58.5332 106.699 58.6493 106.699ZM113.959 105.187C113.38 105.682 112.724 106.872 113.115 106.541C113.213 106.451 114.085 105.231 113.959 105.187ZM37.1073 102.551C37.8762 103.613 39.2108 104.357 38.1972 103.078C38.0852 102.941 37.1051 102.381 37.1073 102.551ZM56.162 103.623C55.8625 103.14 54.6774 101.67 55.0897 102.401C55.2679 102.717 55.9913 103.594 56.162 103.623ZM122.405 93.4541C122.074 94.0709 119.652 97.1678 119.725 97.2861C119.821 97.408 122.394 93.8138 122.405 93.4541ZM29.9354 92.0918C29.998 92.2312 29.6413 92.3954 29.6894 92.5488C29.7127 92.6258 31.1765 94.6263 31.3241 94.9131C31.3654 94.9959 31.3916 95.0667 31.412 95.1152C31.3112 94.7369 32.521 96.5962 32.37 96.6182C32.2957 96.6021 31.5224 95.368 31.4735 95.2734C31.4644 95.2524 31.4541 95.2295 31.4472 95.2119C31.479 95.5483 28.6748 91.1706 29.1005 92.2412C28.1895 91.0304 29.4865 92.2356 28.7841 91.3447C28.5455 91.0406 27.9543 90.976 27.0878 89.1387V89.1299C26.8401 88.6019 27.2688 89.0977 27.2548 88.998C27.2522 88.9644 26.4561 87.2283 27.3075 88.541C28.5826 90.4918 27.1392 88.9162 27.7909 89.9736C27.8896 90.1294 29.3143 91.9447 29.3026 91.8193C29.3 91.8038 28.8804 91.2279 28.8368 91.1162C28.6723 90.6979 28.8961 90.8012 28.872 90.7471C28.7745 90.5711 26.6063 87.5369 26.4901 86.9326C26.4558 86.7752 29.8 91.8439 29.9354 92.0918ZM31.0868 93.0498C31.4741 94.1245 32.4845 95.632 32.5194 95.0713C31.3858 93.378 32.4174 95.4637 31.0868 93.0498ZM47.83 91.5557C47.3077 90.5051 49.6119 93.7778 48.7177 92.8213C48.6731 92.7738 47.8642 91.6198 47.83 91.5557ZM27.8261 87.126C27.1044 86.2485 28.3265 88.5843 28.6698 88.9014C28.8304 89.0421 28.1437 87.5163 27.8261 87.126ZM83.1444 87.3105C82.7323 86.5841 82.6577 86.7822 82.6874 86.8447C82.9632 87.3767 83.6043 88.1361 83.1444 87.3105ZM19.872 75.8408C19.9336 75.9371 20.6258 77.5331 21.0321 78.2402C22.2513 80.3587 22.1466 79.7183 22.2186 79.8398C22.3 79.9745 22.9405 81.4089 23.3788 82.1514C24.4883 84.0278 25.0464 84.7259 26.4198 87.3193C25.4276 85.9592 25.6348 86.9054 24.7587 85.2627C24.8724 85.3744 24.9873 85.485 25.1015 85.5967C23.6813 83.4172 22.2442 80.5353 20.8036 77.8887C20.4233 77.1902 20.6481 78.1183 20.206 77.1592C19.8512 76.3871 19.6154 75.4633 19.872 75.8408ZM42.2929 83.5576C42.4858 83.6518 43.979 85.603 43.9013 85.7988C43.7926 86.0793 42.5293 83.9495 42.2929 83.5576ZM80.3759 84.6562C77.2092 80.2114 77.2031 79.3844 79.8749 83.5752C79.9091 83.6301 80.6118 84.9188 80.3759 84.6562ZM129.313 84.0762C129.241 84.1212 129.17 84.1305 129.094 84.0849C129.287 83.9706 129.34 83.9856 129.313 84.0762ZM70.7431 70.8486C71.0175 71.1673 70.8673 70.7585 71.1649 71.1211C72.1533 72.3301 72.9142 73.459 73.8017 74.6016C73.8813 74.7037 73.3476 73.8514 74.0214 74.7246C74.1134 74.8441 74.6645 75.795 75.4628 76.8252C77.5905 78.9441 78.4942 80.9337 80.7274 83.9619C80.6495 83.7611 79.2211 81.4764 79.1103 81.3164C77.3817 78.6786 74.0296 74.1853 71.956 71.6396C71.4261 70.9824 71.607 71.3559 71.3759 71.0771C71.1927 70.8568 71.5394 70.9973 70.8925 70.3125C70.5837 69.9861 71.3038 71.1608 71.0858 70.9541C70.9432 70.8144 70.357 69.9895 70.1015 69.7764C70.0466 69.7456 70.5542 70.6288 70.7431 70.8486ZM38.3202 78.5303C36.7848 75.7512 45.2273 88.651 39.955 81.4307C40.2541 81.734 40.5582 82.041 40.8602 82.3447C40.2896 81.3772 39.5051 80.2369 39.3661 80.2617C39.3692 80.2296 39.3529 80.172 39.3222 80.0859C39.2876 79.9944 38.5688 79.0005 38.3202 78.5303ZM82.371 83.1621C82.357 83.1992 82.3499 83.239 82.3358 83.2764L82.4237 83.2588C82.4381 83.2217 82.4623 83.1892 82.4765 83.1533L82.371 83.1621ZM92.2938 82.2305C92.3142 82.2662 92.3356 82.3008 92.3554 82.3359L92.4608 82.3271C92.439 82.2897 92.4125 82.2504 92.3905 82.2129L92.2938 82.2305ZM74.5839 75.8496C74.4638 75.8644 75.609 77.2739 75.8056 77.3701C75.5682 77.0447 74.6385 75.867 74.5839 75.8496ZM96.9608 75.4541C97.0282 75.1147 96.2849 76.667 96.1171 77.1504C96.1413 77.3338 96.9585 75.4789 96.9608 75.4541ZM96.6708 76.79C96.6791 76.9178 97.5123 75.2034 97.4706 75.0498C97.2861 75.45 96.678 76.6539 96.6708 76.79ZM73.3446 74.3379C74.1786 75.7073 73.247 74.216 73.1249 74.3642C73.7768 75.2005 75.4306 77.4177 74.4433 75.8057C74.2437 75.4825 73.6474 74.7455 73.3446 74.3379ZM134.947 74.1885C135.706 73.2477 135.75 74.3805 135.009 75.0849C134.914 75.1654 133.922 75.4561 134.947 74.1885ZM19.5995 73.1953C19.6467 73.3241 20.417 74.7454 20.4784 74.6543C20.244 74.0936 19.2799 72.3528 19.5995 73.1953ZM102.99 63.0615C102.649 63.5275 101.785 65.2735 101.689 65.6894C101.632 65.7446 101.508 65.9153 101.294 66.2256C100.844 66.6024 93.9584 80.4481 98.7714 71.2266C98.9199 70.9509 98.6225 71.2869 99.2372 70.1367C99.2787 70.0598 99.3807 70.0583 99.5097 69.8203C99.8115 69.242 101.416 66.3912 101.689 65.7861C101.706 65.7893 101.74 65.759 101.795 65.6894C102.29 65.0503 103.261 62.6763 102.99 63.0615ZM86.5985 73.4941C86.6735 73.6086 86.7516 73.7216 86.827 73.8369C86.8811 73.7248 86.9397 73.6149 86.994 73.5029C86.9025 73.44 86.7696 73.3463 86.6952 73.2832C86.6627 73.3533 86.6309 73.4239 86.5985 73.4941ZM72.0702 73.0019C72.3566 73.3475 73.0076 73.8251 72.4657 73.1074C72.3117 73.0124 71.4349 72.23 72.0702 73.0019ZM86.5019 73.3447C86.5296 73.2881 86.562 73.234 86.5897 73.1777C85.9697 72.3631 85.9459 71.959 85.8954 71.8682C85.699 71.5665 85.4163 71.3139 85.2274 71.0332C84.916 70.5701 84.8047 70.2723 84.4013 69.6885C84.1195 69.2821 84.268 69.7649 83.997 69.3721C83.8985 69.2246 83.067 67.4476 82.6698 67.5351C82.7469 67.6348 84.5162 70.3131 86.5019 73.3447ZM68.1591 68.1152C68.5184 68.431 72.7032 73.7462 71.9384 72.5185C71.837 72.3021 68.1302 67.6756 68.1591 68.1152ZM137.382 70.6465C137.478 70.8664 136.746 71.8973 136.433 72.3252C136.305 72.209 137.139 71.1011 137.382 70.6465ZM83.0478 68.5283C83.1546 68.6961 84.4652 70.5381 84.5595 70.5146C84.2158 69.953 82.4557 67.5361 83.0478 68.5283ZM69.1522 69.6182C69.3839 70.0065 70.1833 70.7301 69.8554 70.1631C69.5024 69.713 69.1023 69.5328 69.1522 69.6182ZM66.7616 65.3203C66.6559 65.1647 64.8736 63.4141 65.4696 64.2568C65.8826 64.8397 66.0949 64.81 66.2079 64.9336C66.3511 65.0817 68.8048 68.1814 66.7616 65.3203ZM103.517 63.3779C103.49 63.5757 102.066 65.8779 101.953 65.9619C102.457 65.0557 102.998 64.1687 103.517 63.3779ZM141.477 63.4922C141.459 63.5449 140.971 64.401 140.933 64.4502C140.277 65.1291 141.783 62.4582 141.477 63.4922ZM62.3407 61.9892C62.1471 61.9324 63.4605 63.2353 63.7118 63.3252C63.3759 62.9431 62.5091 62.0469 62.3407 61.9892ZM104.018 61.4795C103.949 61.5739 103.042 62.9882 103.254 62.8418C103.561 62.6217 104.325 61.0888 104.018 61.4795ZM13.3856 59.0361C13.2696 59.1126 13.9751 60.9765 13.9745 60.7148C13.9639 60.6185 13.4686 58.9732 13.3856 59.0361ZM106.014 58.8691C106.115 58.7507 106.804 58.6152 105.767 59.8711C105.583 60.0975 106.094 59.0759 104.994 60.706C105.783 59.4732 105.414 59.5914 106.014 58.8691ZM58.2626 57.6914C58.5774 58.0189 61.4964 60.813 60.5829 59.7129C60.4385 59.52 57.2644 56.5494 58.2626 57.6914ZM98.5341 53.1914C98.8607 52.9566 97.2206 55.2361 97.163 55.3184C96.6265 55.9669 98 53.7741 98.5341 53.1914ZM146.654 53.1914C146.812 53.2392 146.155 54.8074 146.083 54.9053C145.708 55.3831 146.235 53.6942 146.654 53.1914ZM69.6884 51.1875C69.8376 51.1812 70.9942 52.5442 71.4374 53.0068C71.2893 53.0015 70.1457 51.637 69.6884 51.1875ZM10.4149 49.8779C10.4339 48.618 11.2143 54.7617 10.6259 51.9346C10.5852 51.791 10.4038 49.9917 10.4149 49.8779ZM49.412 50.8535C49.155 50.3823 50.4932 51.2613 51.2841 51.9785C51.4645 52.1397 52.0281 52.8659 51.1874 52.2949C51.383 52.0788 50.1962 51.0655 49.412 50.8535ZM147.902 49.3242C147.666 50.1534 147.405 51.0136 147.111 51.8906C147.038 51.278 147.725 50.0745 147.902 49.3242ZM149.686 49.6406C149.327 49.7902 149.095 51.1137 148.728 51.8467C149.165 51.6178 149.425 50.3542 149.686 49.6406ZM112.008 51.4072C112.863 49.9949 113.33 50.0191 113.247 50.1328C112.268 51.5592 112.745 50.5829 112.728 50.5635C112.633 50.6442 111.933 51.7129 112.008 51.4072ZM149.177 49.6846C149.149 49.7134 148.584 51.3172 148.702 51.3984C148.999 50.6864 149.565 49.3658 149.177 49.6846ZM150.416 48.9726C150.139 49.0931 149.706 50.5284 149.502 51.1435C149.876 50.9805 150.128 49.6379 150.416 48.9726ZM48.744 49.7285C49.114 49.8107 50.0236 50.4838 50.6249 50.9326C50.4322 50.9122 49.1934 50.0108 48.744 49.7285ZM9.95791 46.3447C10.0939 45.5939 10.0262 46.7182 10.0634 48.0498C10.0843 49.2289 10.217 50.6236 10.2655 50.792C10.0271 51.1379 9.80362 46.8842 9.95791 46.3447ZM24.3632 48.2168C24.4601 48.454 24.8257 50.3325 24.7938 50.6426C24.5696 49.9618 24.4456 48.9087 24.3632 48.2168ZM46.4149 48.6738C43.47 47.1599 44.5659 46.7508 48.1552 49.3242C48.0216 49.2782 47.8841 49.237 47.7509 49.1924C51.9126 52.1239 48.018 49.3871 46.9335 48.7969C46.5268 48.5661 46.7912 48.875 46.4237 48.6738H46.4149ZM147.551 48.208C147.512 48.4354 147.125 49.3168 146.988 49.7285C146.848 49.133 147.696 47.3867 147.551 48.208ZM147.911 49.2978L147.902 49.3242C147.907 49.3072 147.906 49.2885 147.911 49.2715V49.2978ZM24.1083 46.5644C24.1881 46.6552 24.2674 47.9891 24.205 48.1816C24.0921 47.7789 24.1074 47.0292 24.1083 46.5644ZM150.574 46.0635C150.262 46.3936 149.968 48.3293 150.143 48.0498C150.221 47.9271 150.761 45.8685 150.574 46.0635ZM114.688 47.1533C114.861 47.0144 114.469 47.585 114.223 47.8476C113.783 48.3145 114.131 47.6069 114.688 47.1533ZM42.7323 46.4678C42.9086 46.5308 44.0656 47.2456 44.5165 47.4785C43.8121 47.2865 41.6089 46.0436 42.7323 46.4678ZM106.172 44.5254C106.067 44.622 104.293 46.6706 104.317 46.7666C104.578 46.4598 107.183 43.4604 106.172 44.5254ZM106.963 44.8418C106.554 45.3255 105.373 46.614 105.381 46.749C105.771 46.2475 106.953 44.9795 106.963 44.8418ZM106.928 43.3037C106.905 43.3391 107.4 42.9759 106.55 43.9101C106.48 43.9906 106.222 44.0366 105.223 45.2988C105.019 45.5564 104.774 46.0144 104.801 45.9932C106.03 44.8391 109.104 40.7854 106.928 43.3037ZM39.7352 45.167C40.5916 45.5101 39.5641 45.3653 39.1464 45.1143C38.991 45.0195 39.5167 45.0813 39.7352 45.167ZM118.784 43.998C119.635 43.3155 116.927 45.9796 117.729 45.0351C117.771 44.9819 118.739 44.0299 118.784 43.998ZM35.244 43.7695C32.5233 42.6168 37.8872 44.0844 39.4804 44.7627C37.8838 44.4082 35.9381 43.793 38.5311 44.8769C34.6405 43.6986 36.2958 44.0438 36.1581 43.9541C35.9791 43.884 35.3579 43.818 35.244 43.7695ZM60.8554 42.3281C61.432 42.5953 62.7165 43.7884 63.5448 44.5342C63.0826 44.2963 61.5937 42.934 60.8554 42.3281ZM37.8017 43.8574C38.1708 43.9261 38.9442 44.3414 38.6366 44.3232C38.2359 44.295 37.7155 43.8463 37.8017 43.8574ZM123.495 39.9639C123.455 39.9894 123.421 40.0136 123.398 40.0254C123.101 40.319 119.519 43.3368 119.329 43.541C118.194 44.3661 122.97 40.1393 123.196 40.0957C123.279 40.0455 123.338 40.0133 123.372 39.999C123.528 39.8162 124.464 39.0934 124.646 39.0937C124.356 39.2966 123.606 39.8883 123.495 39.9639ZM32.2821 42.9258C31.3824 42.6087 35.1426 42.8484 35.9296 43.251C35.8051 43.2996 32.3989 42.8991 32.2821 42.9258ZM60.1786 42.9961C60.3599 42.9146 57.9313 41.1091 58.7811 41.959C58.9971 42.1688 60.1239 43.0199 60.1786 42.9961ZM120.261 41.5459C120.019 41.9236 119.813 42.115 118.907 42.9258C120.203 41.6731 118.905 42.7233 120.261 41.5459ZM115.708 35.3935C115.324 35.5469 109.671 40.9203 109.037 41.8008C109.737 41.0092 115.371 35.739 115.69 35.5605C115.758 35.4882 115.746 35.3698 115.708 35.3935ZM153.176 39.2432C153.061 39.0263 152.802 39.8833 153.017 40.0342C153.165 40.1034 153.259 39.3767 153.176 39.2432ZM113.678 38.8301C113.102 39.1854 112.785 39.9349 113.563 39.208C113.796 38.9918 113.74 38.7936 113.678 38.8301ZM113.071 36.6328C112.608 37.1864 111.127 38.5221 110.329 39.3486C110.13 39.3269 112.455 37.1937 113.071 36.6328ZM170.473 32.3789C169.757 29.9279 165.917 21.4094 170.552 30.0498H170.543C171.395 32.3845 170.622 31.0263 170.666 31.1396C171.828 35.9263 171.723 34.4991 171.993 35.2353C172.339 36.718 171.774 36.7377 172.125 38.9795C171.519 35.0876 171.917 38.7062 171.685 38.7685C170.922 39.4222 171.712 33.3587 170.429 31.0605C170.317 30.7697 170.802 33.1315 170.473 32.3789ZM172.248 35.3232C172.52 34.6282 172.889 38.3451 172.775 38.6631C172.774 38.8616 171.992 36.2113 172.248 35.3232ZM54.3163 37.3008C54.4235 37.361 55.71 38.2551 55.7577 38.3027C56.7592 39.176 53.0147 36.5812 54.3163 37.3008ZM128.549 36.3252C128.61 36.3121 127.133 37.46 126.422 37.8984C125.063 38.6944 128.409 36.3419 128.549 36.3252ZM119.382 34.5146C118.852 34.8784 117.33 36.0357 117.132 36.3164C117.664 35.8466 119.213 34.7401 119.382 34.5146ZM125.411 29.4082C124.167 30.0961 122.96 30.8403 121.781 31.623C123.106 31.1298 120.649 32.6039 119.716 32.9853C119.427 33.2703 119.143 33.5665 118.863 33.8555C118.101 33.944 118.271 34.5764 117.061 35.1299C115.994 36.547 120.825 32.2155 121.764 32.1767C115.959 36.1212 125.83 29.9108 121.43 32.1592C124.955 30.1369 122.523 31.3717 123.003 30.9726C123.527 30.5371 125.576 29.4682 125.411 29.4082ZM46.5292 33.2402C46.4108 32.9328 48.993 34.3805 49.8602 34.8574C49.9656 35.1436 47.4748 33.6278 46.5292 33.2402ZM124.409 29.2939C123.507 30.0121 122.639 30.3664 121.359 31.21C121.02 31.4364 121.15 31.4406 121.113 31.4648C120.528 31.8593 120.915 31.4932 120.551 31.7373C120.238 31.8709 115.794 35.3933 116.358 34.8135C116.67 34.2764 123.206 29.7951 124.409 29.2939ZM44.7626 33.5391C45.3564 33.9246 46.3686 34.0832 45.8436 33.7236C45.2617 33.4392 44.7001 33.4986 44.7626 33.5391ZM132.82 33.3545C132.741 33.2119 135.528 32.1989 136.222 31.9834C135.511 32.3063 133.861 32.9123 132.82 33.3545ZM156.278 30.832C156.657 31.3402 157.023 31.9128 157.28 32.4756C157.964 32.4514 157.196 31.9158 157.008 31.6494C156.842 31.3995 156.876 31.0432 156.278 30.832ZM41.3349 31.1133C41.5366 31.0668 43.4433 31.7803 44.0858 32.0273C43.6155 31.9828 42.2749 31.4307 41.3349 31.1133ZM40.4208 31.9394C38.9629 31.2886 38.9524 31.6805 40.0604 32.001C40.4379 32.1146 40.4616 31.9674 40.4208 31.9394ZM125.701 29.7861C125.56 29.8286 122.973 31.4003 123.161 31.3769C123.502 31.1569 127.272 29.0246 125.701 29.7861ZM29.4169 30.1728C28.2687 30.1685 26.627 30.2845 26.3056 30.4189C27.0199 30.3152 28.5135 30.288 29.4169 30.2783C29.8534 30.2692 30.1248 30.2494 30.0321 30.1728C29.8695 30.1751 29.6561 30.1712 29.4169 30.1728ZM166.561 27.1406C165.592 25.5266 168.225 29.0072 168.548 30.2256C168.46 30.1952 166.716 27.2344 166.561 27.1406ZM29.3993 28.9687C34.6456 29.0025 36.6222 29.7855 36.413 29.7422C36.1743 29.7905 33.7247 29.201 29.3993 29.1357C28.4501 29.1305 27.4456 29.1598 26.3935 29.25C26.3604 29.1117 26.3235 29.1473 27.2548 29.0654C28.0037 29.0041 28.7212 28.9758 29.3993 28.9687ZM145.652 29.5664C145.971 29.6299 144.605 29.7168 144.114 29.7158C143.014 29.691 145.536 29.5239 145.652 29.5664ZM128.461 27.8701C128.189 27.954 125.925 29.0617 125.789 29.2588C126.885 28.7885 129.047 27.6463 128.461 27.8701ZM137.461 25.4971C135.549 25.8103 132.502 26.6363 130.72 27.3252C130.208 27.5151 129.741 27.7793 129.313 27.958C128.633 28.2442 129.192 27.8895 129.146 27.9053L128.478 28.2129C127.893 28.5241 127.67 28.7731 129.085 28.1426C128.433 28.4694 127.791 28.8067 127.16 29.1621C129.635 28.0897 129.36 27.9436 130.078 27.6416C131.096 27.2442 131.113 27.5171 130.939 27.668C131.693 27.167 135.298 25.9328 137.461 25.4971ZM152.024 27.501C153.103 27.5531 154.899 28.3432 155.839 28.7314C155.932 28.774 155.783 27.7976 156.753 28.9248C157.38 29.5417 152.894 27.8404 152.024 27.501ZM133.576 27.0176C130.33 28.2193 131.496 27.6309 130.887 27.7734C129.616 28.127 130.233 28.4212 130.394 28.3799C131.036 28.1798 133.132 27.1955 133.576 27.0176ZM171.167 25.4707C171.282 25.5817 172.453 27.7115 172.45 27.7998C173.271 29.8192 169.691 23.4205 171.167 25.4707ZM139.412 24.5391C137.333 24.7223 135.077 25.5828 134.815 25.6641C134.501 25.7429 134.959 25.4802 134.886 25.4971C134.695 25.5042 131.37 26.597 131.221 26.7012C131.11 26.7509 131.772 26.7146 131.124 27.0264C132.351 26.2865 138.6 24.7687 138.946 24.8115C139.201 24.76 137.24 24.8473 140.282 24.5039L139.412 24.5391ZM133.831 25.4004C132.254 25.7825 129.024 27.2465 130.289 26.4902C130.931 26.11 131.44 26.081 131.528 26.0508C132.387 25.7456 134.195 25.1702 133.831 25.4004ZM134.007 25.8574C134.867 25.6797 132.536 26.4032 131.968 26.5957C130.708 26.968 133.841 25.8667 134.007 25.8574ZM136.081 24.4951C137.563 24.1972 131.013 26.0075 130.658 26.2617C131.04 25.9628 135.859 24.4533 136.081 24.4951ZM131.563 25.6465C131.815 25.5992 131.405 25.8509 130.702 26.1211C130.425 26.1637 130.971 25.7613 131.563 25.6465ZM138.401 25.1279C137.299 25.321 135.613 25.6794 135.061 25.9541C136.127 25.6512 137.821 25.3393 138.401 25.1279ZM136.142 24.3633C135.917 24.3521 131.124 25.8912 131.994 25.4795C132.567 25.0926 137.383 23.9526 136.142 24.3633ZM154.301 24.6885C153.38 24.2554 155.534 24.7938 156.138 25.1719C156.087 25.2878 154.466 24.7414 154.301 24.6885ZM149.915 23.5371C151.093 23.904 148.045 23.7765 147.683 23.458C147.661 23.3825 149.689 23.4516 149.915 23.5371ZM149.774 22.834C150.712 23.0934 148.591 22.9509 147.92 22.8428C147.887 22.6878 149.627 22.7846 149.774 22.834ZM146.997 20.2676C150.18 20.8758 147.453 20.6477 154.362 21.4014C151.368 21.1551 154.12 21.6681 153.527 21.7178C153.055 21.7425 151.353 21.3107 152.297 21.7881C151.093 21.1208 146.09 20.8879 145.749 20.9004H145.758C145.614 20.865 145.993 20.1312 146.997 20.2676ZM149.493 20.3203C149.561 20.2144 150.672 20.2988 151.849 20.5137C153.243 20.7535 154.64 21.1776 155.057 21.3047C154.789 21.3297 153.315 20.995 151.849 20.7773C150.602 20.5836 149.439 20.4441 149.493 20.3203Z" fill="#FF3C3C"/>
</svg>
